<mxfile host="app.diagrams.net" modified="2020-06-24T12:09:08.588Z" agent="5.0 (Windows NT 10.0; Win64; x64) AppleWebKit/537.36 (KHTML, like Gecko) Chrome/83.0.4103.106 Safari/537.36" etag="xy0csfguRxK6arqQgje2" version="13.3.2" type="github">
  <diagram id="C5RBs43oDa-KdzZeNtuy" name="Page-1">
    <mxGraphModel dx="1422" dy="762" grid="1" gridSize="10" guides="1" tooltips="1" connect="1" arrows="1" fold="1" page="1" pageScale="1" pageWidth="827" pageHeight="1169" math="0" shadow="0">
      <root>
        <mxCell id="WIyWlLk6GJQsqaUBKTNV-0" />
        <mxCell id="WIyWlLk6GJQsqaUBKTNV-1" parent="WIyWlLk6GJQsqaUBKTNV-0" />
        <mxCell id="WIyWlLk6GJQsqaUBKTNV-2" value="" style="rounded=0;html=1;jettySize=auto;orthogonalLoop=1;fontSize=11;endArrow=block;endFill=0;endSize=8;strokeWidth=1;shadow=0;labelBackgroundColor=none;edgeStyle=orthogonalEdgeStyle;noEdgeStyle=1;fontFamily=Verdana;orthogonal=1;" parent="WIyWlLk6GJQsqaUBKTNV-1" source="WIyWlLk6GJQsqaUBKTNV-3" target="WIyWlLk6GJQsqaUBKTNV-6" edge="1">
          <mxGeometry relative="1" as="geometry">
            <Array as="points">
              <mxPoint x="345" y="60" mark="1" />
              <mxPoint x="345" y="80" mark="1" />
            </Array>
          </mxGeometry>
        </mxCell>
        <mxCell id="WIyWlLk6GJQsqaUBKTNV-3" value="Lamp doesn&#39;t work" style="rounded=1;whiteSpace=wrap;html=1;fontSize=12;glass=0;strokeWidth=1;shadow=0;fontFamily=Verdana;fillColor=#1E22AA;fontColor=#FFFFFF;" parent="WIyWlLk6GJQsqaUBKTNV-1" vertex="1">
          <mxGeometry x="285" y="20" width="120" height="40" as="geometry" />
        </mxCell>
        <mxCell id="WIyWlLk6GJQsqaUBKTNV-4" value="Yes" style="rounded=0;html=1;jettySize=auto;orthogonalLoop=1;fontSize=11;endArrow=block;endFill=0;endSize=8;strokeWidth=1;shadow=0;labelBackgroundColor=#ffffff;edgeStyle=orthogonalEdgeStyle;noEdgeStyle=1;fontFamily=Verdana;orthogonal=1;" parent="WIyWlLk6GJQsqaUBKTNV-1" source="WIyWlLk6GJQsqaUBKTNV-6" target="WIyWlLk6GJQsqaUBKTNV-10" edge="1">
          <mxGeometry relative="1" as="geometry">
            <mxPoint as="offset" />
            <Array as="points">
              <mxPoint x="345" y="160" mark="1" />
              <mxPoint x="345" y="175" mark="9" />
              <mxPoint x="280" y="175" mark="10" />
              <mxPoint x="280" y="180" mark="2" />
            </Array>
          </mxGeometry>
        </mxCell>
        <mxCell id="WIyWlLk6GJQsqaUBKTNV-5" value="No" style="edgeStyle=orthogonalEdgeStyle;rounded=0;html=1;jettySize=auto;orthogonalLoop=1;fontSize=11;endArrow=block;endFill=0;endSize=8;strokeWidth=1;shadow=0;labelBackgroundColor=#ffffff;noEdgeStyle=1;fontFamily=Verdana;orthogonal=1;" parent="WIyWlLk6GJQsqaUBKTNV-1" source="WIyWlLk6GJQsqaUBKTNV-6" target="WIyWlLk6GJQsqaUBKTNV-7" edge="1">
          <mxGeometry x="-0.2" relative="1" as="geometry">
            <mxPoint as="offset" />
            <Array as="points">
              <mxPoint x="345" y="160" mark="1" />
              <mxPoint x="345" y="175" mark="9" />
              <mxPoint x="410" y="175" mark="12" />
              <mxPoint x="410" y="180" mark="4" />
            </Array>
          </mxGeometry>
        </mxCell>
        <mxCell id="WIyWlLk6GJQsqaUBKTNV-6" value="Lamp&lt;br&gt;plugged in?" style="rhombus;whiteSpace=wrap;html=1;shadow=0;fontFamily=Verdana;fontSize=12;align=center;strokeWidth=1;spacing=6;spacingTop=-4;fillColor=#1E22AA;fontColor=#FFFFFF;" parent="WIyWlLk6GJQsqaUBKTNV-1" vertex="1">
          <mxGeometry x="295" y="80" width="100" height="80" as="geometry" />
        </mxCell>
        <mxCell id="WIyWlLk6GJQsqaUBKTNV-7" value="Plug in lamp" style="rounded=1;whiteSpace=wrap;html=1;fontSize=12;glass=0;strokeWidth=1;shadow=0;fontFamily=Verdana;fillColor=#1E22AA;fontColor=#FFFFFF;" parent="WIyWlLk6GJQsqaUBKTNV-1" vertex="1">
          <mxGeometry x="350" y="180" width="120" height="40" as="geometry" />
        </mxCell>
        <mxCell id="WIyWlLk6GJQsqaUBKTNV-9" value="Yes" style="edgeStyle=orthogonalEdgeStyle;rounded=0;html=1;jettySize=auto;orthogonalLoop=1;fontSize=11;endArrow=block;endFill=0;endSize=8;strokeWidth=1;shadow=0;labelBackgroundColor=#FFFFFF;noEdgeStyle=1;fontFamily=Verdana;orthogonal=1;" parent="WIyWlLk6GJQsqaUBKTNV-1" source="WIyWlLk6GJQsqaUBKTNV-10" target="WIyWlLk6GJQsqaUBKTNV-12" edge="1">
          <mxGeometry x="-0.2" relative="1" as="geometry">
            <mxPoint as="offset" />
            <Array as="points">
              <mxPoint x="280" y="260" mark="1" />
              <mxPoint x="280" y="275" mark="9" />
              <mxPoint x="345" y="275" mark="12" />
              <mxPoint x="345" y="280" mark="4" />
            </Array>
          </mxGeometry>
        </mxCell>
        <mxCell id="WIyWlLk6GJQsqaUBKTNV-10" value="Bulb&lt;br&gt;burned out?" style="rhombus;whiteSpace=wrap;html=1;shadow=0;fontFamily=Verdana;fontSize=12;align=center;strokeWidth=1;spacing=6;spacingTop=-4;fillColor=#1E22AA;fontColor=#FFFFFF;" parent="WIyWlLk6GJQsqaUBKTNV-1" vertex="1">
          <mxGeometry x="230" y="180" width="100" height="80" as="geometry" />
        </mxCell>
        <mxCell id="WIyWlLk6GJQsqaUBKTNV-11" value="Repair Lamp" style="rounded=1;whiteSpace=wrap;html=1;fontSize=12;glass=0;strokeWidth=1;shadow=0;fontFamily=Verdana;fillColor=#1E22AA;fontColor=#FFFFFF;" parent="WIyWlLk6GJQsqaUBKTNV-1" vertex="1">
          <mxGeometry x="160" y="480" width="120" height="40" as="geometry" />
        </mxCell>
        <mxCell id="WIyWlLk6GJQsqaUBKTNV-12" value="Replace Bulb" style="rounded=1;whiteSpace=wrap;html=1;fontSize=12;glass=0;strokeWidth=1;shadow=0;fontFamily=Verdana;fillColor=#1E22AA;fontColor=#FFFFFF;" parent="WIyWlLk6GJQsqaUBKTNV-1" vertex="1">
          <mxGeometry x="285" y="280" width="120" height="40" as="geometry" />
        </mxCell>
        <mxCell id="8R4PuQF2Rhe0k4bHZbMj-9" value="Yes" style="edgeStyle=orthogonalEdgeStyle;rounded=0;orthogonalLoop=1;jettySize=auto;html=1;exitDx=0;exitDy=0;labelBackgroundColor=#ffffff;endArrow=block;endFill=0;noEdgeStyle=1;fontFamily=Verdana;orthogonal=1;" edge="1" parent="WIyWlLk6GJQsqaUBKTNV-1" source="8R4PuQF2Rhe0k4bHZbMj-0" target="8R4PuQF2Rhe0k4bHZbMj-6">
          <mxGeometry relative="1" as="geometry">
            <Array as="points">
              <mxPoint x="215" y="360" mark="1" />
              <mxPoint x="215" y="375" mark="9" />
              <mxPoint x="280" y="375" mark="12" />
              <mxPoint x="280" y="380" mark="4" />
            </Array>
          </mxGeometry>
        </mxCell>
        <mxCell id="8R4PuQF2Rhe0k4bHZbMj-0" value="Fuse blown?" style="rhombus;whiteSpace=wrap;html=1;fontFamily=Verdana;fillColor=#1E22AA;fontColor=#FFFFFF;" vertex="1" parent="WIyWlLk6GJQsqaUBKTNV-1">
          <mxGeometry x="165" y="280" width="100" height="80" as="geometry" />
        </mxCell>
        <mxCell id="8R4PuQF2Rhe0k4bHZbMj-1" value="No" style="rounded=0;html=1;jettySize=auto;orthogonalLoop=1;fontSize=11;endArrow=block;endFill=0;endSize=8;strokeWidth=1;shadow=0;labelBackgroundColor=#ffffff;edgeStyle=orthogonalEdgeStyle;noEdgeStyle=1;fontFamily=Verdana;orthogonal=1;" edge="1" parent="WIyWlLk6GJQsqaUBKTNV-1" source="WIyWlLk6GJQsqaUBKTNV-10" target="8R4PuQF2Rhe0k4bHZbMj-0">
          <mxGeometry x="-0.2" relative="1" as="geometry">
            <mxPoint as="offset" />
            <mxPoint x="400" y="390" as="sourcePoint" />
            <mxPoint x="400" y="570" as="targetPoint" />
            <Array as="points">
              <mxPoint x="280" y="260" mark="1" />
              <mxPoint x="280" y="275" mark="9" />
              <mxPoint x="215" y="275" mark="10" />
              <mxPoint x="215" y="280" mark="2" />
            </Array>
          </mxGeometry>
        </mxCell>
        <mxCell id="8R4PuQF2Rhe0k4bHZbMj-2" value="Circuit tripped?" style="rhombus;whiteSpace=wrap;html=1;fontFamily=Verdana;fillColor=#1E22AA;fontColor=#FFFFFF;" vertex="1" parent="WIyWlLk6GJQsqaUBKTNV-1">
          <mxGeometry x="100" y="380" width="100" height="80" as="geometry" />
        </mxCell>
        <mxCell id="8R4PuQF2Rhe0k4bHZbMj-4" value="No" style="endArrow=block;html=1;exitDx=0;exitDy=0;entryDx=0;entryDy=0;endFill=0;noEdgeStyle=1;fontFamily=Verdana;orthogonal=1;edgeStyle=orthogonalEdgeStyle;" edge="1" parent="WIyWlLk6GJQsqaUBKTNV-1" source="8R4PuQF2Rhe0k4bHZbMj-0" target="8R4PuQF2Rhe0k4bHZbMj-2">
          <mxGeometry width="50" height="50" relative="1" as="geometry">
            <mxPoint x="870" y="440" as="sourcePoint" />
            <mxPoint x="920" y="390" as="targetPoint" />
            <Array as="points">
              <mxPoint x="215" y="360" mark="1" />
              <mxPoint x="215" y="375" mark="9" />
              <mxPoint x="150" y="375" mark="10" />
              <mxPoint x="150" y="380" mark="2" />
            </Array>
          </mxGeometry>
        </mxCell>
        <mxCell id="8R4PuQF2Rhe0k4bHZbMj-5" value="No" style="endArrow=classic;html=1;exitDx=0;exitDy=0;entryDx=0;entryDy=0;noEdgeStyle=1;fontFamily=Verdana;orthogonal=1;edgeStyle=orthogonalEdgeStyle;" edge="1" parent="WIyWlLk6GJQsqaUBKTNV-1" source="8R4PuQF2Rhe0k4bHZbMj-2" target="WIyWlLk6GJQsqaUBKTNV-11">
          <mxGeometry width="50" height="50" relative="1" as="geometry">
            <mxPoint x="870" y="440" as="sourcePoint" />
            <mxPoint x="920" y="390" as="targetPoint" />
            <Array as="points">
              <mxPoint x="150" y="460" mark="1" />
              <mxPoint x="150" y="475" mark="9" />
              <mxPoint x="220" y="475" mark="12" />
              <mxPoint x="220" y="480" mark="4" />
            </Array>
          </mxGeometry>
        </mxCell>
        <mxCell id="8R4PuQF2Rhe0k4bHZbMj-6" value="Check current limit and replace" style="rounded=1;whiteSpace=wrap;html=1;fontSize=12;glass=0;strokeWidth=1;shadow=0;fontFamily=Verdana;fillColor=#1E22AA;fontColor=#FFFFFF;" vertex="1" parent="WIyWlLk6GJQsqaUBKTNV-1">
          <mxGeometry x="220" y="380" width="120" height="40" as="geometry" />
        </mxCell>
        <mxCell id="8R4PuQF2Rhe0k4bHZbMj-7" value="Check and reset" style="rounded=1;whiteSpace=wrap;html=1;fontSize=12;glass=0;strokeWidth=1;shadow=0;fontFamily=Verdana;fillColor=#1E22AA;fontColor=#FFFFFF;" vertex="1" parent="WIyWlLk6GJQsqaUBKTNV-1">
          <mxGeometry x="20" y="480" width="120" height="40" as="geometry" />
        </mxCell>
        <mxCell id="8R4PuQF2Rhe0k4bHZbMj-10" value="Yes" style="endArrow=block;html=1;labelBackgroundColor=#ffffff;exitDx=0;exitDy=0;entryDx=0;entryDy=0;endFill=0;noEdgeStyle=1;fontFamily=Verdana;orthogonal=1;edgeStyle=orthogonalEdgeStyle;" edge="1" parent="WIyWlLk6GJQsqaUBKTNV-1" source="8R4PuQF2Rhe0k4bHZbMj-2" target="8R4PuQF2Rhe0k4bHZbMj-7">
          <mxGeometry width="50" height="50" relative="1" as="geometry">
            <mxPoint x="870" y="410" as="sourcePoint" />
            <mxPoint x="920" y="360" as="targetPoint" />
            <Array as="points">
              <mxPoint x="150" y="460" mark="1" />
              <mxPoint x="150" y="475" mark="9" />
              <mxPoint x="80" y="475" mark="10" />
              <mxPoint x="80" y="480" mark="2" />
            </Array>
          </mxGeometry>
        </mxCell>
      </root>
    </mxGraphModel>
  </diagram>
</mxfile>
